<svg width="20" height="20" viewBox="0 0 20 20" fill="none" xmlns="http://www.w3.org/2000/svg">
<path fill-rule="evenodd" clip-rule="evenodd" d="M6.07042 2C5.40172 2 4.77725 2.3342 4.40632 2.8906L1.86179 6.70739C1.35479 7.46789 1.42787 8.47535 2.03931 9.15472L8.51347 16.3482C9.30795 17.231 10.6922 17.231 11.4866 16.3482L17.9608 9.15472C18.5722 8.47535 18.6453 7.46789 18.1383 6.70739L15.5938 2.8906C15.2229 2.3342 14.5984 2 13.9297 2H6.07042ZM8.00006 7.4C7.66868 7.4 7.40006 7.66863 7.40006 8C7.40006 8.33137 7.66868 8.6 8.00006 8.6H12.0001C12.3314 8.6 12.6001 8.33137 12.6001 8C12.6001 7.66863 12.3314 7.4 12.0001 7.4H8.00006Z" fill="#2A55EC"/>
</svg>
