<svg width="20" height="20" viewBox="0 0 20 20" fill="none" xmlns="http://www.w3.org/2000/svg">
<path fill-rule="evenodd" clip-rule="evenodd" d="M6.07189 3.2H13.9312C14.1986 3.2 14.4484 3.33368 14.5968 3.55624L17.1413 7.37303C17.3441 7.67723 17.3149 8.08021 17.0703 8.35196L10.5962 15.5455C10.2784 15.8986 9.72468 15.8986 9.40689 15.5455L2.93272 8.35197C2.68815 8.08021 2.65892 7.67723 2.86172 7.37303L5.40625 3.55624C5.55462 3.33368 5.80441 3.2 6.07189 3.2ZM4.40779 2.8906C4.77872 2.3342 5.40318 2 6.07189 2H13.9312C14.5999 2 15.2243 2.3342 15.5953 2.8906L18.1398 6.70739C18.6468 7.46789 18.5737 8.47535 17.9623 9.15472L11.4881 16.3482C10.6936 17.231 9.30942 17.231 8.51493 16.3482L2.04077 9.15472C1.42933 8.47535 1.35626 7.46789 1.86326 6.70739L4.40779 2.8906ZM8.00152 7.4C7.67015 7.4 7.40152 7.66863 7.40152 8C7.40152 8.33137 7.67015 8.6 8.00152 8.6H12.0015C12.3329 8.6 12.6015 8.33137 12.6015 8C12.6015 7.66863 12.3329 7.4 12.0015 7.4H8.00152Z" fill="#050407"/>
</svg>
