<svg width="20" height="20" viewBox="0 0 20 20" fill="none" xmlns="http://www.w3.org/2000/svg">
<path d="M14.2629 12.7984C14.0374 13.0535 13.8006 13.3053 13.5531 13.5529C9.97329 17.1327 5.48837 18.4518 3.53575 16.4991C2.19708 15.1605 2.39616 12.6316 3.80722 10.0201M5.74155 7.27096C5.97631 7.00404 6.22326 6.74055 6.48203 6.48178C10.0618 2.90198 14.5468 1.58288 16.4994 3.53551C17.839 4.8751 17.6387 7.40654 16.225 10.0199M13.5531 6.48178C17.1329 10.0616 18.452 14.5465 16.4994 16.4991C14.5468 18.4518 10.0618 17.1327 6.48203 13.5529C2.90222 9.97304 1.58313 5.48813 3.53575 3.5355C5.48837 1.58288 9.97329 2.90198 13.5531 6.48178ZM10.8335 9.99991C10.8335 10.4601 10.4605 10.8332 10.0002 10.8332C9.53998 10.8332 9.16688 10.4601 9.16688 9.99991C9.16688 9.53968 9.53998 9.16658 10.0002 9.16658C10.4605 9.16658 10.8335 9.53968 10.8335 9.99991Z" stroke="#305DFF" stroke-width="1.5" stroke-linecap="round" stroke-linejoin="round"/>
</svg>
