<svg width="20" height="20" viewBox="0 0 20 20" fill="none" xmlns="http://www.w3.org/2000/svg">
<path fill-rule="evenodd" clip-rule="evenodd" d="M16.8 10C16.8 13.7555 13.7555 16.8 10 16.8C9.09328 16.8 8.23084 16.6232 7.44308 16.3032L7.40302 16.2869C7.27507 16.2345 7.09076 16.159 6.91554 16.1197C6.75917 16.0847 6.6192 16.0692 6.45894 16.0691C6.28012 16.0691 6.10098 16.0995 5.98193 16.1197L5.9473 16.1256L3.45986 16.5401L3.87444 14.0527L3.88028 14.0181C3.90048 13.899 3.93087 13.7199 3.93085 13.5411C3.93083 13.3808 3.91533 13.2408 3.88028 13.0845C3.841 12.9092 3.76552 12.7249 3.71312 12.597L3.69675 12.5569C3.37682 11.7692 3.2 10.9067 3.2 10C3.2 6.24446 6.24446 3.2 10 3.2C13.7555 3.2 16.8 6.24446 16.8 10ZM18 10C18 14.4183 14.4183 18 10 18C8.93587 18 7.92027 17.7922 6.99155 17.4151L6.99151 17.415L6.99146 17.415C6.81377 17.3429 6.72491 17.3068 6.65308 17.2907C6.58281 17.2749 6.5308 17.2692 6.45878 17.2691C6.38516 17.2691 6.30497 17.2825 6.14458 17.3092L2.98201 17.8363C2.65083 17.8915 2.48524 17.9191 2.3655 17.8678C2.2607 17.8228 2.17718 17.7393 2.13223 17.6345C2.08087 17.5148 2.10847 17.3492 2.16367 17.018L2.69076 13.8554C2.71749 13.695 2.73086 13.6148 2.73085 13.5412C2.73084 13.4692 2.72508 13.4172 2.70933 13.3469C2.69323 13.2751 2.65714 13.1862 2.58496 13.0085L2.58495 13.0085L2.58494 13.0085C2.20777 12.0797 2 11.0641 2 10C2 5.58172 5.58172 2 10 2C14.4183 2 18 5.58172 18 10ZM6 11C6.55228 11 7 10.5523 7 10C7 9.44772 6.55228 9 6 9C5.44772 9 5 9.44772 5 10C5 10.5523 5.44772 11 6 11ZM10 11C10.5523 11 11 10.5523 11 10C11 9.44772 10.5523 9 10 9C9.44772 9 9 9.44772 9 10C9 10.5523 9.44772 11 10 11ZM15 10C15 10.5523 14.5523 11 14 11C13.4477 11 13 10.5523 13 10C13 9.44772 13.4477 9 14 9C14.5523 9 15 9.44772 15 10Z" fill="#050407"/>
</svg>
