<svg width="14" height="14" viewBox="0 0 14 14" fill="none" xmlns="http://www.w3.org/2000/svg">
<path fill-rule="evenodd" clip-rule="evenodd" d="M8.5 0L9.73694 3.13631C9.94023 3.65176 10.3482 4.05977 10.8637 4.26306L14 5.5L10.8637 6.73694C10.3482 6.94023 9.94023 7.34824 9.73694 7.86369L8.5 11L7.26306 7.86369C7.05977 7.34824 6.65176 6.94023 6.13631 6.73694L3 5.5L6.13631 4.26306C6.65176 4.05977 7.05977 3.65176 7.26306 3.13631L8.5 0ZM1 2C1.18042 2.45746 1.54254 2.81958 2 3C1.54254 3.18042 1.18042 3.54254 1 4C0.819579 3.54254 0.457463 3.18042 0 3C0.457463 2.81958 0.819579 2.45746 1 2ZM3.52984 9.34342L3 8L2.47016 9.34342C2.26688 9.85886 1.85886 10.2669 1.34342 10.4702L0 11L1.34342 11.5298C1.85886 11.7331 2.26688 12.1411 2.47016 12.6566L3 14L3.52984 12.6566C3.73312 12.1411 4.14114 11.7331 4.65658 11.5298L6 11L4.65658 10.4702C4.14114 10.2669 3.73312 9.85886 3.52984 9.34342Z" fill="white"/>
</svg>
