<svg width="16" height="16" viewBox="0 0 16 16" fill="none" xmlns="http://www.w3.org/2000/svg">
<path d="M8 15C11.866 15 15 11.866 15 8C15 4.13401 11.866 1 8 1C4.13401 1 1 4.13401 1 8C1 11.866 4.13401 15 8 15Z" fill="#394047"/>
<path d="M5.96289 5.89996C6.12746 5.43213 6.4523 5.03763 6.87986 4.78635C7.30742 4.53507 7.81012 4.44322 8.29891 4.52706C8.78771 4.6109 9.23106 4.86503 9.55045 5.24443C9.86983 5.62383 10.0446 6.10402 10.0439 6.59996C10.0439 7.99996 7.94389 8.69996 7.94389 8.69996M7.99989 11.5H8.00689" stroke="white" stroke-linecap="round" stroke-linejoin="round"/>
</svg>
