<svg width="20" height="20" viewBox="0 0 20 20" fill="none" xmlns="http://www.w3.org/2000/svg">
<path fill-rule="evenodd" clip-rule="evenodd" d="M16.8 9.6826V15C16.8 15.9941 15.9941 16.8 15 16.8H5C4.00589 16.8 3.2 15.9941 3.2 15V9.6826C3.2 8.76892 3.64579 7.91271 4.39431 7.38875L9.54123 3.7859C9.81669 3.59308 10.1833 3.59308 10.4588 3.7859L15.6057 7.38875C16.3542 7.91271 16.8 8.76892 16.8 9.6826ZM2 9.6826C2 8.37734 2.63684 7.15418 3.70615 6.40567L8.85308 2.80282C9.54172 2.32077 10.4583 2.32077 11.1469 2.80282L16.2939 6.40567C17.3632 7.15418 18 8.37734 18 9.6826V15C18 16.6568 16.6569 18 15 18H5C3.34315 18 2 16.6568 2 15V9.6826ZM11.8 12C11.8 12.9941 10.9941 13.8 10 13.8C9.00589 13.8 8.2 12.9941 8.2 12C8.2 11.0059 9.00589 10.2 10 10.2C10.9941 10.2 11.8 11.0059 11.8 12ZM13 12C13 13.6569 11.6569 15 10 15C8.34315 15 7 13.6569 7 12C7 10.3431 8.34315 9 10 9C11.6569 9 13 10.3431 13 12Z" fill="#050407"/>
</svg>
