<svg width="16" height="16" viewBox="0 0 16 16" fill="none" xmlns="http://www.w3.org/2000/svg">
<path d="M8 1.73684H4.53684C3.29883 1.73684 2.67983 1.73684 2.20697 1.97778C1.79103 2.18971 1.45286 2.52787 1.24093 2.94381C1 3.41667 1 4.03567 1 5.27368V11.4632C1 12.7012 1 13.3202 1.24093 13.793C1.45286 14.209 1.79103 14.5471 2.20697 14.7591C2.67983 15 3.29883 15 4.53684 15H11.3158C12.001 15 12.3437 15 12.6248 14.9247C13.3876 14.7203 13.9834 14.1244 14.1878 13.3616C14.2632 13.0805 14.2632 12.7379 14.2632 12.0526M12.7895 5.42105V1M10.5789 3.21053H15M6.52632 5.78947C6.52632 6.60337 5.86652 7.26316 5.05263 7.26316C4.23874 7.26316 3.57895 6.60337 3.57895 5.78947C3.57895 4.97558 4.23874 4.31579 5.05263 4.31579C5.86652 4.31579 6.52632 4.97558 6.52632 5.78947ZM9.83476 8.30811L3.6019 13.9744C3.25132 14.2931 3.07603 14.4524 3.06053 14.5905C3.04709 14.7101 3.09297 14.8288 3.1834 14.9083C3.28773 15 3.52463 15 3.99842 15H10.9149C11.9754 15 12.5056 15 12.922 14.8218C13.4448 14.5982 13.8614 14.1817 14.085 13.6589C14.2632 13.2424 14.2632 12.7122 14.2632 11.6518C14.2632 11.295 14.2632 11.1166 14.2242 10.9504C14.1751 10.7416 14.0811 10.5461 13.9487 10.3773C13.8433 10.2431 13.704 10.1316 13.4254 9.90876L11.3643 8.25986C11.0854 8.03678 10.946 7.92524 10.7925 7.88587C10.6571 7.85117 10.5147 7.85567 10.3819 7.89882C10.2311 7.94779 10.099 8.0679 9.83476 8.30811Z" stroke="#050407" stroke-width="1.5" stroke-linecap="round" stroke-linejoin="round"/>
</svg>
