<svg width="20" height="20" viewBox="0 0 20 20" fill="none" xmlns="http://www.w3.org/2000/svg">
<path fill-rule="evenodd" clip-rule="evenodd" d="M10.6 6.04222V11C10.6 11.3314 10.3314 11.6 10 11.6C9.66863 11.6 9.4 11.3314 9.4 11V6.04222L9.33436 5.99846L7.34206 4.67026C6.88211 4.36363 6.34169 4.2 5.7889 4.2H4C3.55817 4.2 3.2 4.55817 3.2 5V15C3.2 15.4418 3.55817 15.8 4 15.8H16C16.4418 15.8 16.8 15.4418 16.8 15V5C16.8 4.55817 16.4418 4.2 16 4.2H14.2111C13.6583 4.2 13.1179 4.36363 12.6579 4.67026L10.6656 5.99846L10.6 6.04222ZM8.0077 3.6718L10 5L11.9923 3.6718C12.6494 3.23375 13.4214 3 14.2111 3H16C17.1046 3 18 3.89543 18 5V15C18 16.1046 17.1046 17 16 17H4C2.89543 17 2 16.1046 2 15V5C2 3.89543 2.89543 3 4 3H5.7889C6.5786 3 7.35063 3.23375 8.0077 3.6718Z" fill="#050407"/>
</svg>
