<svg width="20" height="20" viewBox="0 0 20 20" fill="none" xmlns="http://www.w3.org/2000/svg">
<circle cx="10" cy="10" r="8" fill="#2A55EC"/>
<path d="M12.6703 11.5421C11.7109 13.2037 10.5171 14.4916 9.38427 15.2396C8.22356 16.0059 7.26993 16.124 6.66517 15.7749C6.06041 15.4257 5.68588 14.5408 5.76921 13.1524C5.85055 11.7974 6.36903 10.1195 7.32837 8.45791C8.2877 6.79629 9.48153 5.50834 10.6143 4.7604C11.7751 3.99403 12.7287 3.87592 13.3334 4.22508C13.9382 4.57424 14.3127 5.45916 14.2294 6.84755C14.1481 8.20257 13.6296 9.88043 12.6703 11.5421Z" stroke="url(#paint0_linear_148_6001)"/>
<path d="M7.32975 11.5421C8.28909 13.2037 9.48292 14.4916 10.6157 15.2396C11.7764 16.0059 12.7301 16.124 13.3348 15.7749C13.9396 15.4257 14.3141 14.5408 14.2308 13.1524C14.1495 11.7974 13.631 10.1195 12.6716 8.45791C11.7123 6.79629 10.5185 5.50834 9.38566 4.7604C8.22494 3.99403 7.27131 3.87592 6.66655 4.22508C6.06179 4.57424 5.68726 5.45916 5.7706 6.84755C5.85193 8.20257 6.37041 9.88043 7.32975 11.5421Z" stroke="url(#paint1_linear_148_6001)"/>
<path d="M10 6.5C11.8621 6.5 13.5233 6.93236 14.7017 7.60569C15.8942 8.28711 16.5 9.15229 16.5 10C16.5 10.8477 15.8942 11.7129 14.7017 12.3943C13.5233 13.0676 11.8621 13.5 10 13.5C8.1379 13.5 6.47666 13.0676 5.29832 12.3943C4.10584 11.7129 3.5 10.8477 3.5 10C3.5 9.15229 4.10584 8.28711 5.29832 7.60569C6.47666 6.93236 8.1379 6.5 10 6.5Z" stroke="url(#paint2_linear_148_6001)"/>
<defs>
<linearGradient id="paint0_linear_148_6001" x1="13.1033" y1="11.7921" x2="6.89535" y2="8.20791" gradientUnits="userSpaceOnUse">
<stop stop-color="white" stop-opacity="0"/>
<stop offset="1" stop-color="white"/>
</linearGradient>
<linearGradient id="paint1_linear_148_6001" x1="6.89674" y1="11.7921" x2="13.1046" y2="8.20791" gradientUnits="userSpaceOnUse">
<stop stop-color="white" stop-opacity="0"/>
<stop offset="1" stop-color="white"/>
</linearGradient>
<linearGradient id="paint2_linear_148_6001" x1="10" y1="6" x2="10" y2="14" gradientUnits="userSpaceOnUse">
<stop stop-color="white" stop-opacity="0"/>
<stop offset="1" stop-color="white"/>
</linearGradient>
</defs>
</svg>
