<svg width="20" height="20" viewBox="0 0 20 20" fill="none" xmlns="http://www.w3.org/2000/svg">
<path d="M9.2 4H15.04C15.9361 4 16.3841 4 16.7264 4.17439C17.0274 4.32779 17.2722 4.57256 17.4256 4.87362C17.6 5.21587 17.6 5.66392 17.6 6.56V7.6C17.6 8.34551 17.6 8.71826 17.4782 9.01229C17.3158 9.40434 17.0043 9.71582 16.6123 9.87821C16.3183 10 15.9455 10 15.2 10M10.8 16H4.96C4.06392 16 3.61587 16 3.27362 15.8256C2.97256 15.6722 2.72779 15.4274 2.57439 15.1264C2.4 14.7841 2.4 14.3361 2.4 13.44V12.4C2.4 11.6545 2.4 11.2817 2.52179 10.9877C2.68418 10.5957 2.99566 10.2842 3.38771 10.1218C3.68174 10 4.05449 10 4.8 10M8.64 12H11.36C11.584 12 11.696 12 11.7816 11.9564C11.8569 11.9181 11.9181 11.8569 11.9564 11.7816C12 11.696 12 11.584 12 11.36V8.64C12 8.41598 12 8.30397 11.9564 8.2184C11.9181 8.14314 11.8569 8.08195 11.7816 8.0436C11.696 8 11.584 8 11.36 8H8.64C8.41598 8 8.30397 8 8.2184 8.0436C8.14314 8.08195 8.08195 8.14314 8.0436 8.2184C8 8.30397 8 8.41598 8 8.64V11.36C8 11.584 8 11.696 8.0436 11.7816C8.08195 11.8569 8.14314 11.9181 8.2184 11.9564C8.30397 12 8.41598 12 8.64 12ZM14.64 18H17.36C17.584 18 17.696 18 17.7816 17.9564C17.8569 17.9181 17.9181 17.8569 17.9564 17.7816C18 17.696 18 17.584 18 17.36V14.64C18 14.416 18 14.304 17.9564 14.2184C17.9181 14.1431 17.8569 14.0819 17.7816 14.0436C17.696 14 17.584 14 17.36 14H14.64C14.416 14 14.304 14 14.2184 14.0436C14.1431 14.0819 14.0819 14.1431 14.0436 14.2184C14 14.304 14 14.416 14 14.64V17.36C14 17.584 14 17.696 14.0436 17.7816C14.0819 17.8569 14.1431 17.9181 14.2184 17.9564C14.304 18 14.416 18 14.64 18ZM2.64 6H5.36C5.58402 6 5.69603 6 5.7816 5.9564C5.85686 5.91805 5.91805 5.85686 5.9564 5.7816C6 5.69603 6 5.58402 6 5.36V2.64C6 2.41598 6 2.30397 5.9564 2.2184C5.91805 2.14314 5.85686 2.08195 5.7816 2.0436C5.69603 2 5.58402 2 5.36 2H2.64C2.41598 2 2.30397 2 2.2184 2.0436C2.14314 2.08195 2.08195 2.14314 2.0436 2.2184C2 2.30397 2 2.41598 2 2.64V5.36C2 5.58402 2 5.69603 2.0436 5.7816C2.08195 5.85686 2.14314 5.91805 2.2184 5.9564C2.30397 6 2.41598 6 2.64 6Z" stroke="#050407" stroke-width="1.2" stroke-linecap="round" stroke-linejoin="round"/>
</svg>
