<svg width="20" height="20" viewBox="0 0 20 20" fill="none" xmlns="http://www.w3.org/2000/svg">
<path fill-rule="evenodd" clip-rule="evenodd" d="M17 10C17 13.866 13.866 17 10 17C6.13401 17 3 13.866 3 10C3 11.0566 3.93633 12.0038 5.41673 12.6455C5.23206 14.2489 5.58416 15.5338 6.49935 16.0622C7.41449 16.5905 8.7032 16.2531 9.99935 15.2916C11.2955 16.2531 12.5842 16.5905 13.4994 16.0622C14.4144 15.5338 14.7666 14.2492 14.582 12.6461C16.0632 12.0043 17 11.0569 17 10ZM10 3C13.866 3 17 6.13401 17 10C17 8.94313 16.0631 7.99568 14.582 7.35393C14.7666 5.7508 14.4144 4.46613 13.4994 3.9378C12.5842 3.40944 11.2955 3.74689 9.99935 4.70839C8.7032 3.74689 7.41449 3.40944 6.49935 3.9378C5.58416 4.46619 5.23205 5.75109 5.41674 7.35447C3.93633 7.99621 3 8.94343 3 10C3 6.13401 6.13401 3 10 3ZM18 10C18 14.4183 14.4183 18 10 18C5.58172 18 2 14.4183 2 10C2 5.58172 5.58172 2 10 2C14.4183 2 18 5.58172 18 10ZM13.6117 12.9988C13.6146 13.0358 13.6171 13.0726 13.6193 13.1091C13.6971 14.4042 13.3316 15.0043 12.9994 15.1961C12.6671 15.388 11.9646 15.4044 10.8819 14.6895C10.8514 14.6693 10.8207 14.6487 10.79 14.6276C11.1836 14.258 11.5708 13.8343 11.9412 13.3637C12.5341 13.2783 13.0947 13.1548 13.6117 12.9988ZM9.11679 14.6895C9.14734 14.6693 9.17797 14.6487 9.20867 14.6276C8.81506 14.2579 8.42776 13.8342 8.05733 13.3635C7.46448 13.278 6.90395 13.1544 6.38704 12.9984C6.38413 13.0356 6.38157 13.0725 6.37938 13.1091C6.30164 14.4042 6.66708 15.0043 6.99935 15.1961C7.33162 15.388 8.03408 15.4044 9.11679 14.6895ZM10.5139 13.4907C10.3431 13.6716 10.1712 13.8405 9.99935 13.9967C9.8275 13.8405 9.65553 13.6716 9.48474 13.4907C9.65488 13.4968 9.82671 13.5 10 13.5C10.1728 13.5 10.3442 13.4969 10.5139 13.4907ZM7.23353 12.1908C6.99147 12.1334 6.75928 12.0689 6.53812 11.9982C6.58747 11.7713 6.64773 11.538 6.71903 11.2997C6.79864 11.4499 6.88173 11.6001 6.96826 11.75C7.05477 11.8998 7.14325 12.0468 7.23353 12.1908ZM7.83429 11.25C7.59225 10.8308 7.38093 10.412 7.1998 9.99998C7.38093 9.58795 7.59225 9.1692 7.83429 8.74998C8.07631 8.33079 8.33327 7.93844 8.5995 7.57559C9.04711 7.52639 9.51566 7.49999 10 7.49999C10.4838 7.49999 10.9519 7.52634 11.3991 7.57544C11.6654 7.93833 11.9224 8.33073 12.1644 8.74998C12.4065 9.1692 12.6178 9.58795 12.7989 9.99997C12.6178 10.412 12.4065 10.8308 12.1644 11.25C11.9224 11.6692 11.6653 12.0617 11.3991 12.4246C10.9519 12.4737 10.4838 12.5 10 12.5C9.51567 12.5 9.04713 12.4736 8.59953 12.4244C8.33329 12.0615 8.07631 11.6692 7.83429 11.25ZM6.96826 8.24998C7.05476 8.10016 7.14324 7.95319 7.2335 7.80918C6.99146 7.86661 6.75928 7.9311 6.53812 8.00182C6.58747 8.22869 6.64774 8.46199 6.71903 8.70029C6.79864 8.55005 6.88173 8.39986 6.96826 8.24998ZM10 6.49999C9.82669 6.49999 9.65486 6.50314 9.48471 6.50933C9.65551 6.32837 9.82749 6.15947 9.99935 6.00324C10.1712 6.15946 10.3432 6.32834 10.5139 6.50928C10.3442 6.50313 10.1728 6.49999 10 6.49999ZM8.0573 6.63654C8.42774 6.16576 8.81505 5.74203 9.20868 5.37233C9.17797 5.35125 9.14734 5.33062 9.11679 5.31045C8.03408 4.59558 7.33162 4.61199 6.99935 4.80383C6.66708 4.99566 6.30164 5.5958 6.37938 6.89089C6.38157 6.92751 6.38413 6.96442 6.38704 7.00161C6.90394 6.84557 7.46446 6.72199 8.0573 6.63654ZM11.9412 6.63633C11.5708 6.16563 11.1836 5.74198 10.79 5.37233C10.8207 5.35125 10.8514 5.33062 10.8819 5.31045C11.9646 4.59558 12.6671 4.61199 12.9994 4.80383C13.3316 4.99566 13.6971 5.5958 13.6193 6.89089C13.6171 6.92738 13.6146 6.96416 13.6117 7.00123C13.0947 6.84524 12.5341 6.72172 11.9412 6.63633ZM12.765 7.80882C13.0071 7.86624 13.2394 7.93071 13.4607 8.00143C13.4113 8.22842 13.351 8.46185 13.2797 8.70029C13.2001 8.55005 13.117 8.39986 13.0304 8.24998C12.9439 8.10004 12.8553 7.95294 12.765 7.80882ZM13.0304 11.75C13.117 11.6001 13.2001 11.4499 13.2797 11.2997C13.351 11.5381 13.4113 11.7716 13.4607 11.9986C13.2394 12.0693 13.0071 12.1338 12.7649 12.1912C12.8553 12.047 12.9439 11.8999 13.0304 11.75ZM14.4024 8.37063C14.2791 8.89641 14.1058 9.44373 13.8833 9.99998C14.1058 10.5562 14.2791 11.1036 14.4024 11.6293C14.4362 11.6132 14.4696 11.5969 14.5025 11.5804C15.663 11.0002 16 10.3837 16 9.99999C16 9.61632 15.663 8.99977 14.5025 8.41955C14.4696 8.40308 14.4362 8.38677 14.4024 8.37063ZM5.59641 11.6288C5.71976 11.1032 5.89302 10.556 6.11545 9.99998C5.89303 9.44393 5.71977 8.8968 5.59642 8.37119C5.56301 8.38715 5.53002 8.40327 5.49747 8.41955C4.33702 8.99977 4 9.61632 4 9.99999C4 10.3837 4.33702 11.0002 5.49747 11.5804C5.53002 11.5967 5.56301 11.6128 5.59641 11.6288Z" fill="#050407"/>
</svg>
