<svg width="16" height="16" viewBox="0 0 16 16" fill="none" xmlns="http://www.w3.org/2000/svg">
<path d="M8 8.9633V4.41284M5.66667 6.68807H10.3333M4.11111 12.3761V14.1474C4.11111 14.5515 4.11111 14.7536 4.19607 14.8574C4.26995 14.9476 4.38199 15.0001 4.50042 15C4.6366 14.9999 4.79841 14.8736 5.12203 14.6212L6.97739 13.1739C7.3564 12.8782 7.54591 12.7304 7.75693 12.6252C7.94415 12.532 8.14344 12.4638 8.34939 12.4226C8.58152 12.3761 8.82421 12.3761 9.30958 12.3761H11.2667C12.5735 12.3761 13.2269 12.3761 13.726 12.1282C14.165 11.91 14.522 11.562 14.7457 11.1338C15 10.6471 15 10.01 15 8.73577V4.64036C15 3.36612 15 2.72899 14.7457 2.2423C14.522 1.81418 14.165 1.46612 13.726 1.24799C13.2269 1 12.5735 1 11.2667 1H4.73333C3.42654 1 2.77315 1 2.27402 1.24799C1.83498 1.46612 1.47802 1.81418 1.25432 2.2423C1 2.72899 1 3.36612 1 4.64036V9.3425C1 10.0478 1 10.4005 1.07951 10.6898C1.29526 11.4749 1.92421 12.0882 2.72942 12.2986C3.02614 12.3761 3.3878 12.3761 4.11111 12.3761Z" stroke="#050407" stroke-width="1.5" stroke-linecap="round" stroke-linejoin="round"/>
</svg>
