<svg width="20" height="20" viewBox="0 0 20 20" fill="none" xmlns="http://www.w3.org/2000/svg">
<path fill-rule="evenodd" clip-rule="evenodd" d="M10.4008 2.61663L16.195 5.96193C16.4425 6.10483 16.595 6.36894 16.595 6.65475V13.3453C16.595 13.6312 16.4425 13.8953 16.195 14.0382L10.4008 17.3835C10.1533 17.5264 9.84829 17.5264 9.60077 17.3835L3.80654 14.0382C3.55902 13.8953 3.40654 13.6312 3.40654 13.3453V6.65475C3.40654 6.36894 3.55902 6.10483 3.80654 5.96193L9.60077 2.61663C9.84829 2.47372 10.1533 2.47372 10.4008 2.61663ZM9.00077 1.5774C9.61957 1.22013 10.382 1.22013 11.0008 1.5774L16.795 4.9227C17.4138 5.27996 17.795 5.94022 17.795 6.65475V13.3453C17.795 14.0599 17.4138 14.7201 16.795 15.0774L11.0008 18.4227C10.382 18.78 9.61957 18.78 9.00077 18.4227L3.20654 15.0774C2.58774 14.7201 2.20654 14.0599 2.20654 13.3453V6.65475C2.20654 5.94022 2.58774 5.27996 3.20654 4.9227L9.00077 1.5774ZM6.83556 7.48041L9.99987 9.30733L13.1642 7.48042C13.4511 7.31473 13.8181 7.41305 13.9838 7.70003C14.1495 7.98701 14.0511 8.35396 13.7642 8.51965L10.5997 10.3467V14C10.5997 14.3314 10.331 14.6 9.99966 14.6C9.66829 14.6 9.39966 14.3314 9.39966 14V10.3464L6.23556 8.51964C5.94858 8.35396 5.85026 7.987 6.01594 7.70003C6.18163 7.41305 6.54858 7.31473 6.83556 7.48041Z" fill="#050407"/>
</svg>
