<svg width="20" height="20" viewBox="0 0 20 20" fill="none" xmlns="http://www.w3.org/2000/svg">
<path d="M9.00073 1.57735C9.61953 1.22008 10.3819 1.22008 11.0007 1.57735L16.795 4.92265C17.4138 5.27992 17.795 5.94017 17.795 6.6547V13.3453C17.795 14.0598 17.4138 14.7201 16.795 15.0774L11.0007 18.4226C10.3819 18.7799 9.61953 18.7799 9.00073 18.4226L3.2065 15.0773C2.5877 14.7201 2.2065 14.0598 2.2065 13.3453V6.6547C2.2065 5.94017 2.5877 5.27992 3.2065 4.92265L9.00073 1.57735Z" fill="#2A55EC"/>
<path fill-rule="evenodd" clip-rule="evenodd" d="M9.99971 9.3073L6.8354 7.48039C6.54843 7.3147 6.18147 7.41303 6.01579 7.7C5.8501 7.98698 5.94843 8.35393 6.2354 8.51962L9.3995 10.3464V14C9.3995 14.3314 9.66813 14.6 9.9995 14.6C10.3309 14.6 10.5995 14.3314 10.5995 14V10.3467L13.764 8.51962C14.051 8.35394 14.1493 7.98698 13.9836 7.70001C13.8179 7.41303 13.451 7.3147 13.164 7.48039L9.99971 9.3073Z" fill="white"/>
</svg>
