<svg width="28" height="28" viewBox="0 0 28 28" fill="none" xmlns="http://www.w3.org/2000/svg">
<rect width="28" height="28" rx="14" fill="#1A2029"/>
<path d="M18.3116 7.51889C19.5622 7.11018 20.7472 8.29519 20.3385 9.54577L16.5721 21.0703C16.1291 22.4257 14.2715 22.5758 13.6167 21.3089L11.2083 16.649L6.54843 14.2406C5.28162 13.5859 5.43162 11.7283 6.78708 11.2853L18.3116 7.51889Z" fill="white"/>
<path d="M11.2083 16.649L13.6167 21.3089C14.2715 22.5758 16.1291 22.4257 16.5721 21.0703L20.3385 9.54577C20.7472 8.29519 19.5622 7.11018 18.3116 7.51889L6.78708 11.2853C5.43162 11.7283 5.28162 13.5859 6.54843 14.2406L11.2083 16.649ZM11.2083 16.649L13.7673 14.09" stroke="#1A2029" stroke-width="1.78022" stroke-linecap="round" stroke-linejoin="round"/>
</svg>
